# xmcd
#
# Track frame offsets:
#	150
#	12134
#	25538
#	36606
#	46338
#	59127
#	69769
#	82275
#	92907
#	106109
#	118679
#	132266
#	141129
#	152960
#	163413
#	177290
#	185633
#	194155
#	205418
#
# Disc length: 2905 seconds
#
# Revision: 1
# Processed by: cddbd v1.5.2PL0 Copyright (c) Steve Scherf et al.
# Submitted via: audiograbber 1.83.01
#
DISCID=1e0b5713
DTITLE=Stonewall Jackson and Porter Wagoner - Back To Back
DYEAR=2001
DGENRE=Country
TTITLE0=Stonewall Jackson - Don't Be Angry
TTITLE1=Stonewall Jackson - A Wound Time Can't Erase
TTITLE2=Stonewall Jackson - Waterloo
TTITLE3=Stonewall Jackson - Shake 'Em Up, Roll 'Em
TTITLE4=Stonewall Jackson - Love Gets All Over Me
TTITLE5=Stonewall Jackson - Lovin' The Fool Out Of Me
TTITLE6=Stonewall Jackson - I Washed My Hands in Muddy..
TTITLE7=Stonewall Jackson - Why I'm Walking
TTITLE8=Stonewall Jackson - BJ The DJ
TTITLE9=Stonewall Jackson - Herman Schwartz
TTITLE10=Porter Wagoner - When Lea Jane Sang
TTITLE11=Porter Wagoner - Can You Tell Me
TTITLE12=Porter Wagoner - Fools Like Me
TTITLE13=Porter Wagoner - Storm Of Love
TTITLE14=Porter Wagoner - Something Between
TTITLE15=Porter Wagoner - Somewhere In The Night
TTITLE16=Porter Wagoner - I See Love
TTITLE17=Porter Wagoner - Angel Band
TTITLE18=Porter Wagoner - Hold On Tight
EXTD=
EXTT0=
EXTT1=
EXTT2=
EXTT3=
EXTT4=
EXTT5=
EXTT6=
EXTT7=
EXTT8=
EXTT9=
EXTT10=
EXTT11=
EXTT12=
EXTT13=
EXTT14=
EXTT15=
EXTT16=
EXTT17=
EXTT18=
PLAYORDER=
